<?xml version="1.0"?>
<svg xmlns="http://www.w3.org/2000/svg" height="512px" viewBox="-110 0 512 512.00109" width="512px"><path d="m9.21875 20.472656c-.492188-5.671875 1.871094-11.214844 6.308594-14.785156 4.425781-3.71875 10.035156-5.7382812 15.816406-5.6875 2.300781.0195312 4.585938.324219 6.808594.914062 35.332031 9.214844 71.613281 14.3125 108.117187 15.1875 36.503907-.875 72.78125-5.972656 108.113281-15.1875 7.890626-2.191406 16.355469-.390624 22.675782 4.820313 4.414062 3.574219 6.761718 9.113281 6.261718 14.773437-5.925781 57.363282-34.523437 125.777344-137.050781 125.777344-26.738281.921875-53.234375-5.324218-76.746093-18.09375-.128907-.0625-.230469-.164062-.355469-.226562-41.289063-24.21875-55.910157-68.390625-59.949219-107.492188zm216.429688 196.257813c-6.285157.691406-12.351563 1.300781-18.195313 1.832031l-5.824219-61.386719c6.046875-1.773437 11.96875-3.933593 17.738282-6.472656zm-134.738282-59.589844-5.824218 61.375c-5.847657-.511719-11.910157-1.121094-18.195313-1.828125l6.28125-66.066406c5.765625 2.554687 11.691406 4.730468 17.738281 6.519531zm-69.113281 351.488281c-.636719 2.015625-2.511719 3.382813-4.625 3.371094-1.445313.011719-2.816406-.636719-3.722656-1.761719-.945313-1.125-1.332031-2.613281-1.050781-4.050781l39.855468-191.03125c9.164063 3.714844 18.519532 6.945312 28.019532 9.679688zm55.898437-115.484375 5.816407-18.285156h125.476562l5.816407 18.285156zm202.425782 112.96875c.300781 1.460938-.078125 2.980469-1.035156 4.125-.90625 1.125-2.277344 1.773438-3.71875 1.761719-2.128907.011719-4.011719-1.375-4.636719-3.410156l-58.46875-183.769532c9.503906-2.738281 18.855469-5.96875 28.023437-9.683593zm10.386718-251.832031c-12.0625 22.785156-41.730468 41.371094-85.769531 53.761719-38.238281 10.761719-78.703125 10.761719-116.9375 0-44.042969-12.390625-73.710937-30.976563-85.769531-53.761719-3.128906-5.773438-2.609375-12.835938 1.324219-18.09375 4.152343-5.792969 11.285156-8.644531 18.285156-7.3125 41.199219 6.875 82.863281 10.578125 124.628906 11.082031 41.753907-.503906 83.410157-4.210937 124.597657-11.082031 7-1.332031 14.136718 1.519531 18.285156 7.3125 3.945312 5.25 4.472656 12.316406 1.355468 18.09375zm0 0" fill="#cdaf82"/></svg>
